PathFileType	4	(X/Y/Z)	0_coords_data.trc
DataRate	CameraRate	NumFrames	NumMarkers	Units	OrigDataRate	OrigDataStartFrame	OrigNumFrames
30.0	30.0	7	21	m	30.0	21	72
Frame#	Time	THUMB_TIP	THUMB_IP	THUMB_MCP	THUMB_CMC	INDEX_TIP	INDEX_DIP	INDEX_PIP	INDEX_MCP	MIDDLE_TIP	MIDDLE_DIP	MIDDLE_PIP	MIDDLE_MCP	RING_TIP	RING_DIP	RING_PIP	RING_MCP	PINKY_TIP	PINKY_DIP	PINKY_PIP	PINKY_MCP	WRIST
X1	Y1	Z1	X2	Y2	Z2	X3	Y3	Z3	X4	Y4	Z4	X5	Y5	Z5	X6	Y6	Z6	X7	Y7	Z7	X8	Y8	Z8	X9	Y9	Z9	X10	Y10	Z10	X11	Y11	Z11	X12	Y12	Z12	X13	Y13	Z13	X14	Y14	Z14	X15	Y15	Z15	X16	Y16	Z16	X17	Y17	Z17	X18	Y18	Z18	X19	Y19	Z19	X20	Y20	Z20	X21	Y21	Z21
19	0.6666666666666637	0.5420762927267759	-0.021282343728520114	-0.13515949564888075	0.5287549101775274	-0.013652983756842874	-0.11806172873623555	0.5001671832184634	-0.004611855448246827	-0.10970590045763207	0.4703142066581204	-0.013318925517561975	-0.07772345650324286	0.5616200741582945	0.046499121986837255	-0.15870168978428845	0.549192930635152	0.04228996372714178	-0.14621773646011843	0.5323745552907245	0.03761141538970658	-0.12812731719388148	0.5072578628264038	0.0351894848773775	-0.09382101884727773	0.5145229439333208	-0.005252826383445042	-0.1061708227456471	0.5276049026120186	-0.0017786977518039482	-0.11820381021259191	0.5422395331588665	0.023268127846886366	-0.11539424330894626	0.5207755446381772	0.02821690041458913	-0.07652324167717872	0.5251474358968767	-0.011808933437057578	-0.09654899662333288	0.5390117279567614	-0.008111929683898622	-0.1074629129198485	0.5556667178263244	0.008720498564198764	-0.09975183966657108	0.5323779538919386	0.01270133629120529	-0.06694166991084288	0.6040598169656246	0.012687367538207095	-0.07450164533919762	0.588068681711058	0.006993038651258665	-0.07229751018058778	0.5678299640585927	0.0021108329185698382	-0.06958266322956225	0.5334824424384466	-0.00716656403138749	-0.06366142050640683	0.4622830810018609	-0.023011742144276925	-0.051989820119430985
20	0.6999999999999968	0.5424149295215579	-0.02125030737077427	-0.13471294313581994	0.5289569181125339	-0.013610695314799304	-0.11772711797044205	0.5003039626435557	-0.004564621603348806	-0.10960328308168704	0.4703793446957763	-0.013297140938219099	-0.07769481482096413	0.5616985737808642	0.046227373220127155	-0.15865105131693247	0.5492731455002927	0.04206139877304671	-0.14615091575964162	0.5324546154540127	0.03748039678247206	-0.12803569285610739	0.5073340548830197	0.03520132560958589	-0.09372243936437347	0.5145567533538922	-0.005205548140375438	-0.10595158405146438	0.527635320601225	-0.0017908026524734444	-0.11800523876735214	0.5422587009147508	0.023273294266622946	-0.11529279635577239	0.5208388547719379	0.028205652355988486	-0.07639536770172772	0.5252908673953377	-0.0118706092972235	-0.09645328401641168	0.5391581805746796	-0.008102535489442841	-0.10733901986499672	0.5557374145872378	0.008786857387361513	-0.09958934975525746	0.5323994561619906	0.012714925226941842	-0.06680778765719553	0.6040754365037989	0.012777694524294891	-0.0742342108758306	0.5880834784020337	0.007062441437963418	-0.0720910454061191	0.5678436598437983	0.0021545432217129346	-0.06943128999844878	0.533499754243633	-0.007154319187671843	-0.06353852496239931	0.4622830810018609	-0.023011742144276925	-0.051989820119430985
21	0.7333333333333302	0.5429675652464077	-0.021254873438891875	-0.13405734241758527	0.5293318119932061	-0.013598137881380645	-0.1172216471892869	0.5005815830396415	-0.004598728646596495	-0.10939509184593843	0.47045177852239256	-0.013287957342276724	-0.07766841246680178	0.5618233252838367	0.04573946304426202	-0.15857193298144556	0.5493854635150353	0.041659284272083874	-0.14605587386496433	0.532556526647886	0.037225903509314984	-0.12791360686401282	0.5074047855957078	0.03523022236662532	-0.09360554261053317	0.5143669779639297	-0.005090760901184432	-0.1055300021890277	0.5274119038905603	-0.001746804647361433	-0.11763982729681693	0.5422335073680093	0.023225461638514466	-0.11516686613566396	0.520904579988804	0.028210773685485413	-0.07622625184098542	0.5252308693468342	-0.011996169548975533	-0.0963696194823156	0.5390901586704575	-0.008046798175556424	-0.1072011736274473	0.5557310813816169	0.008785088025050847	-0.09945861092179048	0.5324165750248719	0.012740791166201637	-0.06666368692431185	0.6040614801299219	0.01290084722248408	-0.07409875862346399	0.5880799811365429	0.007149584883758164	-0.07197398300336255	0.5678416151235448	0.0022287801573473986	-0.0693270525228899	0.5335142619536133	-0.007119631322507924	-0.06340054611944201	0.4622830810018609	-0.023011742144276925	-0.051989820119430985
22	0.7666666666666633	0.5433474242673229	-0.02137719320624032	-0.1334676670566491	0.5296004432997866	-0.013684694341747683	-0.11673906952135127	0.5007886435741228	-0.004608919528484856	-0.10923370423329337	0.4704996458093227	-0.013317405270521498	-0.07766427455069252	0.5621534449182063	0.04551170789341219	-0.15827678369353698	0.5496716312757555	0.04146056842549939	-0.14579509321481382	0.5327613372916433	0.03707371046976882	-0.12771728174198488	0.5074863956933825	0.03524914726120898	-0.09349032759320797	0.5142892739109418	-0.0040383108114740995	-0.10438492268740468	0.5270240841480351	-0.0015823484497682339	-0.11702584263427201	0.5423033443885633	0.02315306793608929	-0.11499780596782155	0.5209546128721669	0.028222963558149017	-0.07607897065608282	0.5249966786148821	-0.012055677431126344	-0.09615088300117358	0.538852141671303	-0.008136502140092094	-0.10699828861405192	0.5555820861371916	0.008664715472120332	-0.09938198873055404	0.5324357648298205	0.012775161231248666	-0.06648711253991912	0.604045400451831	0.012940743249303943	-0.07414453931009202	0.5880688608210833	0.0071887225744136085	-0.07198480794189349	0.56783899527476	0.0022526054216885916	-0.06930165561072438	0.5335236949222822	-0.007110392877220817	-0.06332855963176548	0.4622830810018609	-0.023011742144276925	-0.051989820119430985
23	0.7999999999999965	0.5434079757712128	-0.02162561975668409	-0.13330407983599274	0.5296282206118381	-0.013866416212418353	-0.11663335375383482	0.500803906939996	-0.00470419190400162	-0.10928266759065808	0.4705506447365204	-0.013365606964778842	-0.0776660577914925	0.5627103753298119	0.045898487624521866	-0.15774561321523312	0.5501453885328278	0.041768592841291974	-0.1453736660818566	0.533098961326784	0.037231303682950356	-0.12746159865225348	0.507562603378918	0.0352262213371225	-0.09343939764254638	0.5141909885543317	-0.003513652029414671	-0.10385079061878916	0.5268302721611202	-0.0015281227463129765	-0.11666898797150266	0.5424673967509938	0.02299900477356831	-0.1148496748636898	0.5210027164857316	0.0281993357634579	-0.0760119099987332	0.5248783442263544	-0.011467784120806623	-0.09526112469289333	0.5384285926668583	-0.008284161140219348	-0.10671779575904944	0.5553775369040508	0.00841039926266085	-0.0993553966120917	0.5324435273451552	0.01281516566668306	-0.06635009290983068	0.6040236100662584	0.012892854826305866	-0.0743726788801003	0.5880605982911158	0.007139453065730494	-0.07211865508961601	0.5678357079924048	0.002247581964252343	-0.06931947154228885	0.5335342911330123	-0.007127402941889294	-0.06328574048697916	0.4622830810018609	-0.023011742144276925	-0.051989820119430985
24	0.8333333333333297	0.5428037782664783	-0.021814890332336967	-0.13393900089118765	0.5292283788836025	-0.014071910998073034	-0.11709397780944092	0.5005175572032661	-0.004708295183608158	-0.10955531630231485	0.47053908875856393	-0.01343609302286497	-0.07769614219834503	0.5633243840105199	0.04668544390504559	-0.15717512495293856	0.5506631027249568	0.04240323910300736	-0.14495404978578358	0.5334599961122158	0.037586092588198894	-0.12726625582142687	0.5076224443367627	0.03513527371628833	-0.09350162197019318	0.5142303760514254	-0.0038648076229693684	-0.10429283667049977	0.5270674840151769	-0.0017160126742131743	-0.11688614201084574	0.5427507942709536	0.02275853756817836	-0.11477907773709728	0.5210347570579326	0.0281196039697581	-0.07610323752902237	0.5246322712069122	-0.011357726070686192	-0.09521371559320174	0.5383051062188513	-0.00861011876956308	-0.10663756069260277	0.5553383540671796	0.008053979433353398	-0.09940179688903772	0.5324748094193619	0.012739304001691654	-0.06638624155785217	0.6040559889252837	0.012641127925321793	-0.07461522982026497	0.5880953892040336	0.006936837736568502	-0.07222350868674526	0.5678672189401736	0.0021552495159341545	-0.06926216425142906	0.5335548514787011	-0.007184590512717137	-0.0632361972395632	0.4622830810018609	-0.023011742144276925	-0.051989820119430985
25	0.8666666666666629	0.541472035836801	-0.021964218540965863	-0.13529169145018088	0.5283691681537745	-0.014254132843707024	-0.11806179194316024	0.4998742719817802	-0.004599043961298066	-0.1100843142202178	0.4704869384458347	-0.0133950107865215	-0.07769750216258137	0.5638184712665546	0.0478975284868165	-0.15655882492747825	0.5510812831847716	0.04342969698753141	-0.1444839534389994	0.5337256285928911	0.03822792447210577	-0.12705602615589717	0.5075715616068779	0.035110792343982844	-0.09359135282136477	0.5147046630206589	-0.004686259810859572	-0.10570379570972305	0.527918787510951	-0.0019664156182002124	-0.11778640145197572	0.5431990651620094	0.02266101605098303	-0.11471845844626727	0.52100452844362	0.028051892854360383	-0.0763193841325957	0.5245798355804381	-0.011688199011384626	-0.09584895456957626	0.5386183685751608	-0.008792598409132713	-0.10678216491733433	0.5555204231242558	0.00791948413306276	-0.0993520351659597	0.5324539300097538	0.01273557835093364	-0.0664968534455182	0.6041363559728197	0.012335732343161987	-0.07467741426817331	0.5881610604057239	0.00673105376986638	-0.07215204110090268	0.5679159780564861	0.0021225495777006387	-0.06903589784627379	0.5335602049104753	-0.007137782904439671	-0.06313585167187258	0.4622830810018609	-0.023011742144276925	-0.051989820119430985
